<?xml version="1.0" encoding="UTF-8"?> <!-- Generator: Adobe Illustrator 21.1.0, SVG Export Plug-In . SVG Version: 6.00 Build 0) --> <svg xmlns="http://www.w3.org/2000/svg" xmlns:xlink="http://www.w3.org/1999/xlink" id="Layer_1" x="0px" y="0px" viewBox="0 0 127 125" style="enable-background:new 0 0 127 125;" xml:space="preserve"> <style type="text/css"> .st0{fill:none;stroke:#000000;stroke-width:3;stroke-miterlimit:10;} .st1{fill:none;stroke:#000000;stroke-miterlimit:10;} .st2{fill:#202020;} .st3{fill:#FBB03B;} .st4{fill:none;stroke:#000000;stroke-width:4;stroke-miterlimit:10;} .st5{fill:none;stroke:#000000;stroke-width:2;stroke-miterlimit:10;} </style> <path d="M66.7,55.7v43.1h-8.5V52.7L66.7,55.7z"></path> <path d="M34.2,51.9c-0.3-11.2,5.6-17,13.3-17c4.7,0,8.3,1.5,15.9,5.1c5.6,2.7,9.7,4.7,13.9,4.7c4,0,5.9-3.3,6-9.4H90 c0.6,12.5-5.8,17-12.8,17c-4.5,0-8.5-1.3-16.2-4.9c-5.3-2.6-9.4-4.9-13.4-4.9c-4,0-6.5,2.8-6.6,9.6H34.2z"></path> <circle class="st4" cx="63.1" cy="62.6" r="59.9"></circle> </svg> 